#Comment line ignore any data following # character 
#Hierarchical Translation and Rotation (.htr) file 
[Header]	
#Header keywords are followed by a single value 
FileType HTR		#Single word string
DataType HTRS		#Translation followed by rotation and scale data
FileVersion 1		#integer
NumSegments 84		#integer
NumFrames 2		#integer
DataFrameRate 30		#integer, data frame rate in this file
EulerRotationOrder ZYX
CalibrationUnits mm
RotationUnits Degrees
GlobalAxisofGravity Y
BoneLengthAxis Y
ScaleFactor 1.00
[SegmentNames&Hierarchy]
#CHILD	PARENT
MASTER GLOBAL
root MASTER
chest root
L_mid_tent01 root
R_mid_tent01 root
spine01 root
Bip01_Neck chest
L_humerus chest
R_humerus chest
weapon_bone chest
Bip01_Head Bip01_Neck
eye_left_bone Bip01_Head
eye_right_bone Bip01_Head
L_forearm L_humerus
L_front_hand L_forearm
L_weapon_bone L_forearm
L_front_hand01_01 L_front_hand
L_front_hand02_01 L_front_hand
L_front_hand03_01 L_front_hand
L_front_hand01_02 L_front_hand01_01
L_front_hand02_02 L_front_hand02_01
L_front_hand03_02 L_front_hand03_01
R_forearm R_humerus
R_front_hand R_forearm
R_weapon_bone R_forearm
R_front_hand01_01 R_front_hand
R_front_hand02_01 R_front_hand
R_front_hand03_01 R_front_hand
R_front_hand01_02 R_front_hand01_01
R_front_hand02_02 R_front_hand02_01
R_front_hand03_02 R_front_hand03_01
null_rope01_connect L_mid_tent01
Rope1_Seg01 null_rope01_connect
Rope1_Seg02 Rope1_Seg01
Rope1_Seg03 Rope1_Seg02
Rope1_Seg04 Rope1_Seg03
Rope1_Seg05 Rope1_Seg04
Rope1_Seg06 Rope1_Seg05
Rope1_Seg07 Rope1_Seg06
Rope1_Seg09 Rope1_Seg07
L_mid_hand01 Rope1_Seg09
L_mid_hand02 Rope1_Seg09
L_mid_hand03 Rope1_Seg09
null_rope02_connect R_mid_tent01
Rope2_Seg01 null_rope02_connect
Rope2_Seg02 Rope2_Seg01
Rope2_Seg03 Rope2_Seg02
Rope2_Seg04 Rope2_Seg03
Rope2_Seg05 Rope2_Seg04
Rope2_Seg06 Rope2_Seg05
Rope2_Seg07 Rope2_Seg06
Rope2_Seg09 Rope2_Seg07
R_mid_hand01 Rope2_Seg09
R_mid_hand02 Rope2_Seg09
R_mid_hand03 Rope2_Seg09
spine02 spine01
spine03 spine02
pelvis spine03
null_rope03_connect pelvis
null_rope04_connect pelvis
Rope3_Seg01 null_rope03_connect
Rope3_Seg02 Rope3_Seg01
Rope3_Seg03 Rope3_Seg02
Rope3_Seg04 Rope3_Seg03
Rope3_Seg05 Rope3_Seg04
Rope3_Seg06 Rope3_Seg05
Rope3_Seg07 Rope3_Seg06
Rope3_Seg08 Rope3_Seg07
Rope3_Seg09 Rope3_Seg08
R_rear_hand01 Rope3_Seg09
R_rear_hand02 Rope3_Seg09
R_rear_hand03 Rope3_Seg09
Rope4_Seg01 null_rope04_connect
Rope4_Seg02 Rope4_Seg01
Rope4_Seg03 Rope4_Seg02
Rope4_Seg04 Rope4_Seg03
Rope4_Seg05 Rope4_Seg04
Rope4_Seg06 Rope4_Seg05
Rope4_Seg07 Rope4_Seg06
Rope4_Seg08 Rope4_Seg07
Rope4_Seg09 Rope4_Seg08
L_rear_hand01 Rope4_Seg09
L_rear_hand02 Rope4_Seg09
L_rear_hand03 Rope4_Seg09
[BasePosition]
#SegmentName Tx, Ty, Tz, Rx, Ry, Rz, BoneLength
MASTER 0.000000 0.000000 0.000000 -90.000000 0.000000 0.000000 10.000000 
root 0.000000 0.000000 0.000000 0.000000 0.000000 0.000000 10.000000 
chest 0.000000 0.000000 0.000000 0.000000 0.000000 0.000000 10.000000 
L_mid_tent01 0.000000 0.000000 0.000000 0.000000 0.000000 0.000000 10.000000 
R_mid_tent01 0.000000 0.000000 0.000000 0.000000 0.000000 0.000000 10.000000 
spine01 0.000000 0.000000 0.000000 0.000000 0.000000 0.000000 10.000000 
Bip01_Neck 0.000000 0.000000 0.000000 0.000000 0.000000 0.000000 10.000000 
L_humerus 0.000000 0.000000 0.000000 0.000000 0.000000 0.000000 10.000000 
R_humerus 0.000000 0.000000 0.000000 0.000000 0.000000 0.000000 10.000000 
weapon_bone 0.000000 0.000000 0.000000 0.000000 0.000000 0.000000 10.000000 
Bip01_Head 0.000000 0.000000 0.000000 0.000000 0.000000 0.000000 10.000000 
eye_left_bone 0.000000 0.000000 0.000000 0.000000 0.000000 0.000000 10.000000 
eye_right_bone 0.000000 0.000000 0.000000 0.000000 0.000000 0.000000 10.000000 
L_forearm 0.000000 0.000000 0.000000 0.000000 0.000000 0.000000 10.000000 
L_front_hand 0.000000 0.000000 0.000000 0.000000 0.000000 0.000000 10.000000 
L_weapon_bone 0.000000 0.000000 0.000000 0.000000 0.000000 0.000000 10.000000 
L_front_hand01_01 0.000000 0.000000 0.000000 0.000000 0.000000 0.000000 10.000000 
L_front_hand02_01 0.000000 0.000000 0.000000 0.000000 0.000000 0.000000 10.000000 
L_front_hand03_01 0.000000 0.000000 0.000000 0.000000 0.000000 0.000000 10.000000 
L_front_hand01_02 0.000000 0.000000 0.000000 0.000000 0.000000 0.000000 10.000000 
L_front_hand02_02 0.000000 0.000000 0.000000 0.000000 0.000000 0.000000 10.000000 
L_front_hand03_02 0.000000 0.000000 0.000000 0.000000 0.000000 0.000000 10.000000 
R_forearm 0.000000 0.000000 0.000000 0.000000 0.000000 0.000000 10.000000 
R_front_hand 0.000000 0.000000 0.000000 0.000000 0.000000 0.000000 10.000000 
R_weapon_bone 0.000000 0.000000 0.000000 0.000000 0.000000 0.000000 10.000000 
R_front_hand01_01 0.000000 0.000000 0.000000 0.000000 0.000000 0.000000 10.000000 
R_front_hand02_01 0.000000 0.000000 0.000000 0.000000 0.000000 0.000000 10.000000 
R_front_hand03_01 0.000000 0.000000 0.000000 0.000000 0.000000 0.000000 10.000000 
R_front_hand01_02 0.000000 0.000000 0.000000 0.000000 0.000000 0.000000 10.000000 
R_front_hand02_02 0.000000 0.000000 0.000000 0.000000 0.000000 0.000000 10.000000 
R_front_hand03_02 0.000000 0.000000 0.000000 0.000000 0.000000 0.000000 10.000000 
null_rope01_connect 0.000000 0.000000 0.000000 0.000000 0.000000 0.000000 10.000000 
Rope1_Seg01 0.000000 0.000000 0.000000 0.000000 0.000000 0.000000 10.000000 
Rope1_Seg02 0.000000 0.000000 0.000000 0.000000 0.000000 0.000000 10.000000 
Rope1_Seg03 0.000000 0.000000 0.000000 0.000000 0.000000 0.000000 10.000000 
Rope1_Seg04 0.000000 0.000000 0.000000 0.000000 0.000000 0.000000 10.000000 
Rope1_Seg05 0.000000 0.000000 0.000000 0.000000 0.000000 0.000000 10.000000 
Rope1_Seg06 0.000000 0.000000 0.000000 0.000000 0.000000 0.000000 10.000000 
Rope1_Seg07 0.000000 0.000000 0.000000 0.000000 0.000000 0.000000 10.000000 
Rope1_Seg09 0.000000 0.000000 0.000000 0.000000 0.000000 0.000000 10.000000 
L_mid_hand01 0.000000 0.000000 0.000000 0.000000 0.000000 0.000000 10.000000 
L_mid_hand02 0.000000 0.000000 0.000000 0.000000 0.000000 0.000000 10.000000 
L_mid_hand03 0.000000 0.000000 0.000000 0.000000 0.000000 0.000000 10.000000 
null_rope02_connect 0.000000 0.000000 0.000000 0.000000 0.000000 0.000000 10.000000 
Rope2_Seg01 0.000000 0.000000 0.000000 0.000000 0.000000 0.000000 10.000000 
Rope2_Seg02 0.000000 0.000000 0.000000 0.000000 0.000000 0.000000 10.000000 
Rope2_Seg03 0.000000 0.000000 0.000000 0.000000 0.000000 0.000000 10.000000 
Rope2_Seg04 0.000000 0.000000 0.000000 0.000000 0.000000 0.000000 10.000000 
Rope2_Seg05 0.000000 0.000000 0.000000 0.000000 0.000000 0.000000 10.000000 
Rope2_Seg06 0.000000 0.000000 0.000000 0.000000 0.000000 0.000000 10.000000 
Rope2_Seg07 0.000000 0.000000 0.000000 0.000000 0.000000 0.000000 10.000000 
Rope2_Seg09 0.000000 0.000000 0.000000 0.000000 0.000000 0.000000 10.000000 
R_mid_hand01 0.000000 0.000000 0.000000 0.000000 0.000000 0.000000 10.000000 
R_mid_hand02 0.000000 0.000000 0.000000 0.000000 0.000000 0.000000 10.000000 
R_mid_hand03 0.000000 0.000000 0.000000 0.000000 0.000000 0.000000 10.000000 
spine02 0.000000 0.000000 0.000000 0.000000 0.000000 0.000000 10.000000 
spine03 0.000000 0.000000 0.000000 0.000000 0.000000 0.000000 10.000000 
pelvis 0.000000 0.000000 0.000000 0.000000 0.000000 0.000000 10.000000 
null_rope03_connect 0.000000 0.000000 0.000000 0.000000 0.000000 0.000000 10.000000 
null_rope04_connect 0.000000 0.000000 0.000000 0.000000 0.000000 0.000000 10.000000 
Rope3_Seg01 0.000000 0.000000 0.000000 0.000000 0.000000 0.000000 10.000000 
Rope3_Seg02 0.000000 0.000000 0.000000 0.000000 0.000000 0.000000 10.000000 
Rope3_Seg03 0.000000 0.000000 0.000000 0.000000 0.000000 0.000000 10.000000 
Rope3_Seg04 0.000000 0.000000 0.000000 0.000000 0.000000 0.000000 10.000000 
Rope3_Seg05 0.000000 0.000000 0.000000 0.000000 0.000000 0.000000 10.000000 
Rope3_Seg06 0.000000 0.000000 0.000000 0.000000 0.000000 0.000000 10.000000 
Rope3_Seg07 0.000000 0.000000 0.000000 0.000000 0.000000 0.000000 10.000000 
Rope3_Seg08 0.000000 0.000000 0.000000 0.000000 0.000000 0.000000 10.000000 
Rope3_Seg09 0.000000 0.000000 0.000000 0.000000 0.000000 0.000000 10.000000 
R_rear_hand01 0.000000 0.000000 0.000000 0.000000 0.000000 0.000000 10.000000 
R_rear_hand02 0.000000 0.000000 0.000000 0.000000 0.000000 0.000000 10.000000 
R_rear_hand03 0.000000 0.000000 0.000000 0.000000 0.000000 0.000000 10.000000 
Rope4_Seg01 0.000000 0.000000 0.000000 0.000000 0.000000 0.000000 10.000000 
Rope4_Seg02 0.000000 0.000000 0.000000 0.000000 0.000000 0.000000 10.000000 
Rope4_Seg03 0.000000 0.000000 0.000000 0.000000 0.000000 0.000000 10.000000 
Rope4_Seg04 0.000000 0.000000 0.000000 0.000000 0.000000 0.000000 10.000000 
Rope4_Seg05 0.000000 0.000000 0.000000 0.000000 0.000000 0.000000 10.000000 
Rope4_Seg06 0.000000 0.000000 0.000000 0.000000 0.000000 0.000000 10.000000 
Rope4_Seg07 0.000000 0.000000 0.000000 0.000000 0.000000 0.000000 10.000000 
Rope4_Seg08 0.000000 0.000000 0.000000 0.000000 0.000000 0.000000 10.000000 
Rope4_Seg09 0.000000 0.000000 0.000000 0.000000 0.000000 0.000000 10.000000 
L_rear_hand01 0.000000 0.000000 0.000000 0.000000 0.000000 0.000000 10.000000 
L_rear_hand02 0.000000 0.000000 0.000000 0.000000 0.000000 0.000000 10.000000 
L_rear_hand03 0.000000 0.000000 0.000000 0.000000 0.000000 0.000000 10.000000 
#Beginning of Data. Separated by tabs
#Fr	Tx	Ty	Tz	Rx	Ry	Rz	SF
[MASTER]
19 -4320.479004 -0.000656 0.000000 0.001315 0.001945 -21.877174 4320.479004
20 -4510.635742 -0.000682 0.000000 0.001293 0.001959 -23.127748 4510.635742
[root]
19 -44.499508 -62.959438 1283.151978 -91.284042 -30.502771 -94.030754 1285.466064
20 -33.682556 -62.906498 1366.934204 -91.472664 -29.338606 -92.632576 1368.795410
[chest]
19 -84.512650 -34.090519 0.000000 8.521523 -11.453991 172.973785 91.129311
20 -84.512650 -34.090519 0.000000 5.272109 -8.522498 175.369446 91.129311
[L_mid_tent01]
19 27.299702 22.177555 -249.918320 2.929274 36.886177 67.835228 252.381241
20 27.299717 22.177559 -249.918350 3.131901 36.585091 71.259346 252.381256
[R_mid_tent01]
19 23.228794 24.509907 226.238495 156.534088 -34.514763 90.800163 228.744751
20 23.228794 24.509907 226.238495 157.512527 -37.803463 90.130692 228.744751
[spine01]
19 -0.361383 -0.195265 0.000000 -0.216562 0.350650 11.737369 0.410763
20 -0.361383 -0.195265 0.000000 -0.292208 0.339304 11.509054 0.410763
[Bip01_Neck]
19 165.484543 71.581718 0.000119 175.896118 1.177290 24.871183 180.302734
20 165.484543 71.581718 0.000119 175.896118 1.177290 24.871183 180.302734
[L_humerus]
19 -13.983130 -135.272980 -120.471481 170.940796 81.564224 -99.189163 181.680161
20 -13.983130 -135.272980 -120.471481 170.940826 81.564224 -99.189163 181.680161
[R_humerus]
19 -13.983309 -135.273102 125.287651 -159.666046 -68.957870 -101.166077 184.909012
20 -13.983309 -135.273102 125.287651 -159.666046 -68.957870 -101.166077 184.909012
[weapon_bone]
19 235.964890 -300.705902 0.000000 0.000000 -89.951546 -128.212341 382.234833
20 235.964890 -300.705902 0.000000 0.000000 -89.951546 -128.212341 382.234833
[Bip01_Head]
19 218.244019 142.864990 13.345642 -2.894231 6.548194 -61.660408 261.187592
20 206.287216 168.933624 13.507690 -3.781897 7.497898 -57.697178 266.974609
[eye_left_bone]
19 -24.626970 125.451866 -64.772606 0.000000 -90.000000 -99.840431 143.318359
20 -24.626970 125.451866 -64.772606 0.000000 -90.000000 -99.840431 143.318359
[eye_right_bone]
19 -24.626970 125.451866 64.327362 0.000000 -89.960434 80.159386 143.117676
20 -24.626970 125.451866 64.327362 0.000000 -89.960434 80.159386 143.117676
[L_forearm]
19 322.776093 0.000000 -0.000119 0.000183 0.002340 -81.045212 322.776093
20 322.776093 0.000000 -0.000119 0.000183 0.002340 -81.045212 322.776093
[L_front_hand]
19 241.149185 -0.042021 -3.300071 -177.843979 -0.700071 -63.348442 241.171753
20 241.149185 -0.042021 -3.300071 -177.780136 -0.478533 -69.145027 241.171753
[L_weapon_bone]
19 156.183838 0.000000 0.000000 0.001719 0.001599 4.142099 156.183838
20 156.183838 0.000000 0.000000 0.001688 0.001631 1.935515 156.183838
[L_front_hand01_01]
19 86.095154 20.947098 -0.655860 0.405585 -0.442306 -4.620490 88.609184
20 86.095154 20.947098 -0.655860 0.405585 -0.442306 -4.620490 88.609184
[L_front_hand02_01]
19 86.935165 -11.437475 24.513514 116.959450 3.630817 1.495453 91.046425
20 86.935165 -11.437475 24.513514 116.959450 3.630817 1.495453 91.046425
[L_front_hand03_01]
19 86.637497 -14.123976 -20.424902 -118.420097 -4.656303 -0.152527 90.126129
20 86.637497 -14.123976 -20.424902 -118.420097 -4.656303 -0.152527 90.126129
[L_front_hand01_02]
19 71.020905 -0.000179 0.000030 0.001534 0.001777 -8.378850 71.020905
20 71.020905 -0.000179 0.000030 0.001534 0.001777 -8.378850 71.020905
[L_front_hand02_02]
19 71.020927 -0.000119 0.000060 0.001534 0.001777 -8.378850 71.020927
20 71.020927 -0.000119 0.000060 0.001534 0.001777 -8.378850 71.020927
[L_front_hand03_02]
19 71.020905 -0.000060 0.000060 0.001534 0.001777 -8.378850 71.020905
20 71.020905 -0.000060 0.000060 0.001534 0.001777 -8.378850 71.020905
[R_forearm]
19 322.776428 -0.000060 0.000030 0.202513 -0.063871 -72.666039 322.776428
20 322.776428 -0.000060 0.000030 0.202513 -0.063871 -72.666039 322.776428
[R_front_hand]
19 238.847015 -0.006795 2.210259 -1.690491 -0.361404 -90.785637 238.857239
20 238.847015 -0.006795 2.210259 -1.685909 -0.381147 -91.441452 238.857239
[R_weapon_bone]
19 155.664093 0.002503 -0.000030 0.003417 0.001367 -97.212738 155.664078
20 155.664093 0.002503 -0.000030 0.003455 0.001268 -93.920433 155.664078
[R_front_hand01_01]
19 87.624611 14.231146 22.918642 -116.960205 3.496675 -1.324138 91.683487
20 87.624611 14.231146 22.918642 -116.960205 3.496675 -1.324138 91.683487
[R_front_hand02_01]
19 89.356956 14.367283 -19.491137 118.419647 -4.257089 0.609827 92.579636
20 89.356956 14.367283 -19.491137 118.419647 -4.257089 0.609827 92.579636
[R_front_hand03_01]
19 87.286232 -22.307278 -0.143439 -0.387970 -0.231462 4.232001 90.091743
20 87.286232 -22.307278 -0.143439 -0.387970 -0.231462 4.232001 90.091743
[R_front_hand01_02]
19 71.020905 0.000060 0.000119 0.001777 0.001534 8.377220 71.020905
20 71.020905 0.000060 0.000119 0.001777 0.001534 8.377220 71.020905
[R_front_hand02_02]
19 71.020844 -0.000030 -0.000119 0.001777 0.001534 8.377220 71.020836
20 71.020844 -0.000030 -0.000119 0.001777 0.001534 8.377220 71.020836
[R_front_hand03_02]
19 71.020905 0.000000 0.000030 0.001777 0.001534 8.377220 71.020905
20 71.020905 0.000000 0.000030 0.001777 0.001534 8.377220 71.020905
[null_rope01_connect]
19 328.732483 0.000000 -0.000238 -112.698975 -28.799370 161.205063 328.732483
20 328.732483 0.000000 -0.000238 -115.577965 -29.773710 159.038376 328.732483
[Rope1_Seg01]
19 0.000000 0.000000 0.000000 96.414665 56.458107 114.736801 0.000000
20 0.000000 0.000000 0.000000 96.922409 57.120674 115.319794 0.000000
[Rope1_Seg02]
19 139.999863 -0.000179 0.000000 -0.051046 -6.351725 1.485574 139.999863
20 139.999863 -0.000179 0.000000 0.033868 -5.307628 1.227963 139.999863
[Rope1_Seg03]
19 139.999924 0.000060 -0.000060 -0.855695 -9.886928 2.334578 139.999924
20 139.999924 0.000060 -0.000060 -0.491387 -8.302373 1.941570 139.999924
[Rope1_Seg04]
19 139.999924 -0.000060 -0.000119 -3.475492 -15.724629 6.558367 139.999924
20 139.999924 -0.000060 -0.000119 -2.479205 -14.031658 5.078029 139.999924
[Rope1_Seg05]
19 139.999832 0.000119 -0.000060 -14.216165 -25.681969 4.147204 139.999832
20 139.999832 0.000119 -0.000060 -13.380699 -27.542139 8.114039 139.999832
[Rope1_Seg06]
19 139.999954 0.000119 -0.000060 -11.482137 -9.008491 -10.722814 139.999954
20 139.999954 0.000119 -0.000060 -13.028790 -11.330641 -11.230082 139.999954
[Rope1_Seg07]
19 139.999985 0.000060 0.000000 -3.795604 -2.396759 -4.523168 139.999985
20 139.999985 0.000060 0.000000 -3.458174 -1.348350 -5.174922 139.999985
[Rope1_Seg09]
19 121.602913 0.000119 -0.000089 -89.793175 -1.359789 0.847147 121.602913
20 121.602913 0.000119 -0.000089 -89.793175 -1.359789 0.847147 121.602913
[L_mid_hand01]
19 103.859421 1.038730 8.195221 104.962105 -16.202581 -4.793301 104.187431
20 103.859421 1.038730 8.195221 105.143661 -18.377056 -5.405620 104.187431
[L_mid_hand02]
19 105.572853 -4.139662 -10.864139 -137.773270 15.675935 -15.980887 106.211075
20 105.572853 -4.139662 -10.864139 -138.263901 17.178423 -17.722975 106.211075
[L_mid_hand03]
19 104.641464 17.579376 -3.913581 -18.078373 5.109438 19.164862 106.179977
20 104.641464 17.579376 -3.913581 -17.876320 5.806674 21.318083 106.179977
[null_rope02_connect]
19 328.732849 0.000179 -0.000119 -140.185867 71.835960 -0.309288 328.732849
20 328.732849 0.000179 -0.000119 -143.215210 68.673889 -3.942275 328.732849
[Rope2_Seg01]
19 -0.000049 0.000134 0.000153 -53.008762 14.185795 -7.527524 0.000209
20 -0.000047 0.000134 0.000153 -77.631729 30.954302 -6.550090 0.000208
[Rope2_Seg02]
19 139.999741 -0.000060 -0.000119 -18.669033 -5.085130 22.284756 139.999756
20 139.999741 -0.000060 -0.000119 -7.668275 -12.989697 13.487782 139.999756
[Rope2_Seg03]
19 140.000107 0.000030 0.000000 -8.143939 -9.890674 17.775743 140.000107
20 140.000107 0.000030 0.000000 -2.896683 -12.814168 9.686749 140.000107
[Rope2_Seg04]
19 139.999802 0.000000 -0.000060 -2.326236 -6.837070 9.566760 139.999802
20 139.999802 0.000000 -0.000060 -0.590161 -7.841041 4.579271 139.999802
[Rope2_Seg05]
19 139.999985 -0.000060 0.000119 -2.397910 -14.336982 16.249216 139.999985
20 139.999985 -0.000060 0.000119 -2.164188 -13.706642 13.985561 139.999985
[Rope2_Seg06]
19 139.999893 -0.000030 -0.000119 0.867700 -18.943760 21.103222 139.999893
20 139.999893 -0.000030 -0.000119 0.341288 -18.567762 21.037310 139.999893
[Rope2_Seg07]
19 139.999893 0.000060 -0.000060 4.313655 -7.780886 9.826081 139.999893
20 139.999893 0.000060 -0.000060 3.830425 -8.534742 10.200596 139.999893
[Rope2_Seg09]
19 121.338966 0.000089 -0.000060 33.793236 -1.359788 -0.847141 121.338966
20 121.338966 0.000089 -0.000060 33.793236 -1.359788 -0.847141 121.338966
[R_mid_hand01]
19 104.680779 11.144459 -10.335981 -45.435844 15.512771 17.484768 105.778534
20 104.680779 11.144459 -10.335981 -45.036015 16.896826 18.918304 105.778534
[R_mid_hand02]
19 104.070427 2.443552 8.231699 74.796021 -18.948435 5.579895 104.424065
20 104.070427 2.443552 8.231699 74.610535 -20.835535 6.127296 104.424065
[R_mid_hand03]
19 106.028137 -11.221827 -5.996406 -165.771210 6.973324 -22.869076 106.788818
20 106.028137 -11.221827 -5.996406 -166.009781 7.447360 -24.778097 106.788818
[spine02]
19 129.756927 0.001550 0.000119 -0.068112 -3.980133 -6.877125 129.756927
20 129.756927 0.001550 0.000119 -0.054905 -3.963259 -7.049425 129.756927
[spine03]
19 79.014214 0.017607 -0.990804 1.918153 -1.788039 19.477766 79.020424
20 79.047050 0.011893 -0.670268 1.922641 -2.201503 21.025003 79.049896
[pelvis]
19 169.435242 0.051022 0.000000 -7.161788 1.863895 -4.075635 169.435257
20 169.435242 0.051022 0.000000 -10.520535 1.336027 -3.911806 169.435257
[null_rope03_connect]
19 -1.257226 -2.466202 137.391083 -108.674866 -64.286301 -152.889420 137.418976
20 -1.257226 -2.466202 137.391083 -117.119034 -63.719688 -147.629395 137.418976
[null_rope04_connect]
19 -1.259640 -2.480268 -137.844437 -108.674866 -64.286301 -152.889420 137.872513
20 -1.259640 -2.480268 -137.844437 -117.119034 -63.719688 -147.629395 137.872513
[Rope3_Seg01]
19 0.000000 0.000000 0.000000 -136.001816 -27.388042 -69.104828 0.000000
20 0.000000 0.000000 0.000000 -134.695023 -22.950615 -69.650749 0.000000
[Rope3_Seg02]
19 139.999924 -0.000119 0.000060 -1.031735 -9.200066 -24.125311 139.999924
20 139.999924 -0.000119 0.000060 -1.145402 -9.241162 -25.280134 139.999924
[Rope3_Seg03]
19 139.999924 -0.000119 0.000119 -11.090603 -2.856081 -19.734245 139.999924
20 139.999924 -0.000119 0.000119 -13.206037 -2.609989 -21.647449 139.999924
[Rope3_Seg04]
19 139.999924 0.000119 0.000000 -19.785553 -3.093965 -17.131044 139.999924
20 139.999924 0.000119 0.000000 -27.507931 -3.118144 -19.567501 139.999924
[Rope3_Seg05]
19 139.999924 -0.000238 0.000060 -121.888618 -2.762722 -31.005798 139.999924
20 139.999924 -0.000238 0.000060 -115.693909 2.426198 -32.158195 139.999924
[Rope3_Seg06]
19 139.999893 -0.000119 -0.000060 -13.036969 16.229261 8.425087 139.999893
20 139.999893 -0.000119 -0.000060 -9.373203 14.293715 8.311304 139.999893
[Rope3_Seg07]
19 139.999771 0.000060 -0.000119 -1.238637 5.466016 5.163332 139.999771
20 139.999771 0.000060 -0.000119 -1.132813 5.183230 4.709659 139.999771
[Rope3_Seg08]
19 139.999985 -0.000060 0.000000 -0.161775 2.825794 2.803009 139.999985
20 139.999985 -0.000060 0.000000 -0.140940 2.696185 2.561136 139.999985
[Rope3_Seg09]
19 90.185997 -0.000179 -0.000060 89.793228 -1.359877 -0.847183 90.185997
20 90.185997 -0.000179 -0.000060 89.793228 -1.359877 -0.847183 90.185997
[R_rear_hand01]
19 103.366196 -6.073594 -10.757982 -157.907288 11.256098 -15.092482 104.101845
20 103.366196 -6.073594 -10.757982 -158.501556 12.396359 -17.993113 104.101845
[R_rear_hand02]
19 100.509819 12.039542 -7.992327 -37.601807 10.141744 15.899503 101.543350
20 100.509819 12.039542 -7.992327 -37.124035 11.994593 18.373814 101.543350
[R_rear_hand03]
19 101.539970 5.215704 5.435467 84.096489 -15.505945 5.448215 101.819031
20 101.539970 5.215704 5.435467 83.998283 -18.547699 5.781802 101.819031
[Rope4_Seg01]
19 -0.000012 -0.000021 -0.000153 49.928162 -10.772782 -156.724350 0.000155
20 -0.000012 -0.000018 -0.000153 50.518166 -10.919314 -152.626358 0.000154
[Rope4_Seg02]
19 139.999985 0.000060 0.000119 -69.528793 -24.802753 -24.034216 139.999985
20 139.999985 0.000060 0.000119 -59.963459 -33.050396 -20.869413 139.999985
[Rope4_Seg03]
19 139.999924 0.000000 -0.000238 -52.739666 12.015205 -12.804214 139.999924
20 139.999924 0.000000 -0.000238 -98.527130 4.982518 -17.618824 139.999924
[Rope4_Seg04]
19 139.999985 0.000000 0.000119 -29.365053 24.940596 -11.750250 139.999985
20 139.999985 0.000000 0.000119 -13.810968 33.268780 2.069482 139.999985
[Rope4_Seg05]
19 139.999802 -0.000060 -0.000119 -11.020565 51.529465 -3.158421 139.999802
20 139.999802 -0.000060 -0.000119 2.985073 43.497654 14.334856 139.999802
[Rope4_Seg06]
19 139.999924 0.000000 0.000060 1.209689 15.439988 2.172230 139.999924
20 139.999924 0.000000 0.000060 0.824971 11.200761 3.780543 139.999924
[Rope4_Seg07]
19 139.999802 0.000000 0.000000 0.839258 5.789989 0.796835 139.999802
20 139.999802 0.000000 0.000000 0.484728 4.986996 1.656460 139.999802
[Rope4_Seg08]
19 139.999924 0.000000 0.000119 -1.013179 2.938101 0.361581 139.999924
20 139.999924 0.000000 0.000119 -1.250383 2.617753 0.848764 139.999924
[Rope4_Seg09]
19 90.185791 0.000060 0.000060 -135.617828 2.228885 0.850567 90.185791
20 90.185791 0.000060 0.000060 -135.617828 2.228885 0.850567 90.185791
[L_rear_hand01]
19 101.696655 -8.392275 -7.654577 -37.971752 -8.386451 166.395752 102.329041
20 101.696655 -8.392275 -7.654577 -37.550831 -10.352249 163.821823 102.329041
[L_rear_hand02]
19 102.726799 -1.568258 5.773216 84.171463 12.660944 174.857391 102.900848
20 102.726799 -1.568258 5.773216 84.085754 15.850829 174.516083 102.900848
[L_rear_hand03]
19 104.552910 9.721220 -10.420293 -157.407806 -10.168632 -167.602097 105.519653
20 104.552910 9.721220 -10.420293 -157.972427 -11.390801 -164.578979 105.519653
